HIERARCHY
ROOT Hips
{
	OFFSET 0.00000 0.00000 0.00000
	CHANNELS 6 Xposition Yposition Zposition Zrotation Yrotation Xrotation 
	JOINT LHipJoint
	{
		OFFSET 0 0 0
		CHANNELS 3 Zrotation Yrotation Xrotation
		JOINT LeftUpLeg
		{
			OFFSET 1.28858 -1.83292 1.03970
			CHANNELS 3 Zrotation Yrotation Xrotation
			JOINT LeftLeg
			{
				OFFSET 2.47846 -6.80952 0.00000
				CHANNELS 3 Zrotation Yrotation Xrotation
				JOINT LeftFoot
				{
					OFFSET 2.75274 -7.56311 0.00000
					CHANNELS 3 Zrotation Yrotation Xrotation
					JOINT LeftToeBase
					{
						OFFSET 0.12848 -0.35301 1.68223
						CHANNELS 3 Zrotation Yrotation Xrotation
						End Site
						{
							OFFSET 0.00000 -0.00000 0.87311
						}
					}
				}
			}
		}
	}
	JOINT RHipJoint
	{
		OFFSET 0 0 0
		CHANNELS 3 Zrotation Yrotation Xrotation
		JOINT RightUpLeg
		{
			OFFSET -1.31183 -1.83292 1.03970
			CHANNELS 3 Zrotation Yrotation Xrotation
			JOINT RightLeg
			{
				OFFSET -2.44740 -6.72417 0.00000
				CHANNELS 3 Zrotation Yrotation Xrotation
				JOINT RightFoot
				{
					OFFSET -2.67343 -7.34519 0.00000
					CHANNELS 3 Zrotation Yrotation Xrotation
					JOINT RightToeBase
					{
						OFFSET -0.16914 -0.46471 1.77626
						CHANNELS 3 Zrotation Yrotation Xrotation
						End Site
						{
							OFFSET -0.00000 -0.00000 0.92777
						}
					}
				}
			}
		}
	}
	JOINT LowerBack
	{
		OFFSET 0 0 0
		CHANNELS 3 Zrotation Yrotation Xrotation
		JOINT Spine
		{
			OFFSET 0.01249 2.14252 0.03842
			CHANNELS 3 Zrotation Yrotation Xrotation
			JOINT Spine1
			{
				OFFSET -0.02957 2.14199 -0.03751
				CHANNELS 3 Zrotation Yrotation Xrotation
				JOINT Neck
				{
					OFFSET 0 0 0
					CHANNELS 3 Zrotation Yrotation Xrotation
					JOINT Neck1
					{
						OFFSET -0.01678 1.65709 -0.05476
						CHANNELS 3 Zrotation Yrotation Xrotation
						JOINT Head
						{
							OFFSET 0.07912 1.58331 -0.11843
							CHANNELS 3 Zrotation Yrotation Xrotation
							End Site
							{
								OFFSET 0.03298 1.73940 -0.04271
							}
						}
					}
				}
				JOINT LeftShoulder
				{
					OFFSET 0 0 0
					CHANNELS 3 Zrotation Yrotation Xrotation
					JOINT LeftArm
					{
						OFFSET 3.39556 1.16496 0.08673
						CHANNELS 3 Zrotation Yrotation Xrotation
						JOINT LeftForeArm
						{
							OFFSET 5.23910 -0.00000 -0.00000
							CHANNELS 3 Zrotation Yrotation Xrotation
							JOINT LeftHand
							{
								OFFSET 3.31467 -0.00000 0.00000
								CHANNELS 3 Zrotation Yrotation Xrotation
								JOINT LeftFingerBase
								{
									OFFSET 0 0 0
									CHANNELS 3 Zrotation Yrotation Xrotation
									JOINT LeftHandIndex1
									{
										OFFSET 0.96590 -0.00000 0.00000
										CHANNELS 3 Zrotation Yrotation Xrotation
										End Site
										{
											OFFSET 0.77873 -0.00000 0.00000
										}
									}
								}
								JOINT LThumb
								{
									OFFSET 0 0 0
									CHANNELS 3 Zrotation Yrotation Xrotation
									End Site
									{
										OFFSET 0.79062 -0.00000 0.79062
									}
								}
							}
						}
					}
				}
				JOINT RightShoulder
				{
					OFFSET 0 0 0
					CHANNELS 3 Zrotation Yrotation Xrotation
					JOINT RightArm
					{
						OFFSET -3.27193 1.31331 0.33940
						CHANNELS 3 Zrotation Yrotation Xrotation
						JOINT RightForeArm
						{
							OFFSET -5.30252 -0.00000 0.00000
							CHANNELS 3 Zrotation Yrotation Xrotation
							JOINT RightHand
							{
								OFFSET -3.67875 -0.00000 0.00000
								CHANNELS 3 Zrotation Yrotation Xrotation
								JOINT RightFingerBase
								{
									OFFSET 0 0 0
									CHANNELS 3 Zrotation Yrotation Xrotation
									JOINT RightHandIndex1
									{
										OFFSET -0.59481 -0.00000 0.00000
										CHANNELS 3 Zrotation Yrotation Xrotation
										End Site
										{
											OFFSET -0.47955 -0.00000 0.00000
										}
									}
								}
								JOINT RThumb
								{
									OFFSET 0 0 0
									CHANNELS 3 Zrotation Yrotation Xrotation
									End Site
									{
										OFFSET -0.48687 -0.00000 0.48687
									}
								}
							}
						}
					}
				}
			}
		}
	}
}
MOTION
Frames: 14
Frame Time: 0.013986
0.00 0.00 0.00 0 0 0 0 0 0 -21 0 0 0 0 0 0 0 0 0 0 0 0 0 0 21 0 0 0 0 0 0 0 0 0 0 0 0 0 0 0 0 0 0 0 0 0 0 -16 0 0 21 0 0 11 0 0 0 -8 0 0 0 0 0 0 0 0 0 0 0 0 0 0 0 0 0 0 0 0 8 0 0 0 0 0 0 0 0 0 0 0 0 0 0 0 0 0
0.00 0.00 0.00 0.1371 -4.0450 3.4941 0.0000 0.0000 0.0000 -15.6087 5.1654 -0.5507 0.0248 1.0167 2.7946 0.0911 -5.3698 -6.1184 4.3994 12.6737 38.1592 0.0000 0.0000 0.0000 17.5469 3.0741 -0.2998 -0.1868 -2.7838 7.6774 -0.5105 -12.4835 -23.1817 -0.0012 0.2259 -0.6205 -3.3014 0.6838 -6.7303 -2.8337 1.2660 -0.2434 -0.9539 0.5959 3.5184 -2.4085 -2.2476 0.9657 5.8731 -3.4965 10.3061 2.2674 -1.6380 3.3359 -0.0000 -0.0000 0.0000 -75.8390 2.5696 29.1186 10.2424 -17.1179 -1.5455 -0.0000 0.0000 -8.3486 11.4950 -11.0568 -2.2335 -7.1250 0.0000 -0.0000 -10.9654 18.8130 6.9719 -0.0000 -0.0000 0.0000 85.5214 -11.6363 20.6072 -14.0710 22.8362 -2.8556 0.0000 0.0000 0.4685 -5.3788 -35.2556 3.1109 7.1250 -0.0000 -0.0000 33.5274 -62.1804 -14.8970
0.00 0.00 0.00 0.3328 4.1328 11.9317 0.0000 0.0000 0.0000 -15.3454 -3.6140 -23.1396 1.3283 7.2984 20.6026 -0.1559 -9.6098 -3.5335 2.5063 9.8494 28.4903 0.0000 0.0000 0.0000 16.7389 2.9000 -21.2528 -1.5275 -7.8035 22.1189 -1.9987 -6.8918 -29.9005 -0.0984 2.0233 -5.5701 1.3178 -0.5107 7.1081 -0.5402 -0.5941 1.1938 -1.2417 -0.3088 -2.7714 -2.3166 -3.5648 5.9543 3.7697 -4.6836 -8.0191 1.8783 -2.4149 -3.5065 0.0000 0.0000 0.0000 -72.0388 -31.1155 64.0075 27.0285 -38.2064 -9.5167 -0.0000 0.0000 -14.6117 9.9582 -16.7567 -2.8978 -7.1250 0.0000 -0.0000 -11.8601 13.2419 9.0278 0.0000 0.0000 0.0000 66.6396 11.1790 67.0797 -38.6548 47.2524 -17.4449 0.0000 0.0000 7.1688 -6.0996 -29.3079 2.9944 7.1250 -0.0000 -0.0000 27.2448 -57.2715 -8.6201
0.00 0.00 0.00 0.0283 3.4914 16.3707 0.0000 0.0000 0.0000 -13.3155 -6.4320 -39.2693 4.0216 12.1891 36.4041 -0.3225 -13.6617 -4.9370 2.8010 10.3657 30.1691 0.0000 0.0000 0.0000 15.3732 7.2340 -37.9253 -4.4260 -12.7066 38.2800 -2.0574 1.6465 -26.6861 -0.2214 3.0288 -8.3589 1.6970 -0.2039 11.5278 -0.3715 -0.0800 2.3214 -1.3324 -0.0588 -4.0373 -1.6007 -3.1190 5.1152 3.1935 -3.9893 -13.6011 1.4723 -2.0855 -4.8181 -0.0000 0.0000 0.0000 -67.2227 -42.7297 65.9240 37.1715 -46.3019 -16.3639 -0.0000 0.0000 -13.2275 11.7227 -19.2419 -3.9120 -7.1250 0.0000 -0.0000 -10.7054 10.6229 8.7058 -0.0000 0.0000 0.0000 60.2139 20.9468 72.9923 -50.4344 53.1692 -26.5215 0.0000 0.0000 7.7995 -9.0700 -27.2200 4.1763 7.1250 -0.0000 -0.0000 22.8090 -55.9999 -6.3911
0.00 0.00 0.00 0.4458 4.7761 18.8124 0.0000 0.0000 0.0000 -11.1631 -10.2524 -52.5180 7.8517 16.0091 52.0268 -0.4473 -16.9559 -6.8660 2.7558 10.2888 29.9171 0.0000 0.0000 0.0000 13.0615 9.3757 -50.4660 -7.8154 -15.9818 51.8951 -2.1341 1.8428 -27.1421 -0.0435 1.3457 -3.7005 1.5970 -0.3340 15.7531 -0.1627 -0.1847 4.0118 -1.0404 -0.0988 -4.5681 -1.7768 -2.9634 3.9172 3.7488 -3.6375 -18.7559 1.7219 -1.9442 -6.2121 -0.0000 0.0000 0.0000 -58.8793 -56.5448 66.7909 48.4337 -52.3439 -24.9286 -0.0000 0.0000 -11.0645 15.6070 -21.0736 -5.7356 -7.1250 0.0000 -0.0000 -8.2689 8.3581 7.0550 -0.0000 0.0000 0.0000 52.9037 30.6981 74.6941 -65.3516 57.5751 -38.8276 0.0000 0.0000 8.5516 -8.0582 -25.5849 3.4987 7.1250 -0.0000 -0.0000 22.7609 -54.3043 -5.4173
0.00 0.00 0.00 1.6091 5.8212 23.1770 0.0000 0.0000 0.0000 -8.2456 -14.4726 -68.4478 12.7312 18.6829 68.2885 -0.5099 -19.5798 -8.9440 3.1974 11.0080 32.3068 0.0000 0.0000 0.0000 9.0437 10.2508 -67.7717 -13.2089 -18.8563 69.7732 -2.6416 2.8447 -30.0569 -0.0006 -0.1584 0.4352 0.9722 -0.4257 17.5259 -0.2261 -0.3829 4.4938 -0.7101 -0.1879 -5.0094 -1.4635 -2.8771 3.5852 3.7441 -3.4296 -22.8608 1.7307 -1.8704 -7.4941 -0.0000 0.0000 0.0000 -46.2165 -68.7257 60.8476 63.2415 -57.1136 -37.0510 -0.0000 0.0000 -7.6901 18.5049 -23.9799 -7.7461 -7.1250 0.0000 -0.0000 -6.6381 4.9937 6.0769 -0.0000 0.0000 0.0000 46.1047 39.7188 74.2570 -82.0504 59.7599 -53.1210 0.0000 0.0000 10.8865 -11.7901 -24.9226 5.0267 7.1250 -0.0000 -0.0000 18.7230 -54.3808 -4.4335
0.00 0.00 0.00 1.6723 6.2251 24.9058 0.0000 0.0000 0.0000 -6.3698 -15.2361 -76.1491 15.3666 19.4773 76.3385 -0.4718 -20.7994 -10.5447 3.5695 11.5644 34.2078 0.0000 0.0000 0.0000 7.5286 10.5168 -75.3127 -15.9402 -19.6002 78.0535 -3.1052 2.7735 -32.7075 -0.0036 -0.3898 1.0711 1.1104 -0.5227 18.3620 -0.0992 -0.4645 4.7259 -0.6332 -0.2271 -5.2078 -1.7219 -2.6479 3.1466 3.6703 -3.1305 -24.1248 1.7466 -1.6944 -7.8416 0.0000 -0.0000 0.0000 -35.2537 -73.7479 52.3329 72.0943 -58.7532 -44.5581 -0.0000 0.0000 -5.8585 20.3252 -25.0684 -8.9194 -7.1250 0.0000 -0.0000 -5.6191 3.5788 5.2833 0.0000 -0.0000 0.0000 42.8099 44.2910 73.4284 -90.1032 60.0000 -60.0894 0.0000 0.0000 11.5212 -12.5325 -24.1963 5.2058 7.1250 -0.0000 -0.0000 17.6004 -53.8255 -3.9125
0.00 0.00 0.00 1.5745 6.1257 25.2810 0.0000 0.0000 0.0000 -5.7966 -15.0513 -78.5240 16.2915 19.6670 79.0991 -0.3599 -20.9417 -11.7146 3.6570 11.6894 34.6418 0.0000 0.0000 0.0000 7.1719 10.8170 -77.5961 -17.0212 -19.7859 81.2607 -4.0716 -12.7607 -43.8571 -0.0002 -0.0923 0.2535 1.0937 -0.4385 18.7850 -0.0704 -0.3511 4.8168 -0.6171 -0.1718 -5.3320 -1.6101 -2.6395 3.4668 3.5745 -3.1226 -24.9457 1.7189 -1.6927 -8.1816 -0.0000 -0.0000 0.0000 -30.2343 -75.3229 48.1358 74.8841 -59.1188 -46.9480 -0.0000 0.0000 -5.2134 20.8372 -25.4422 -9.2862 -7.1250 0.0000 -0.0000 -5.3454 3.1039 5.0706 -0.0000 -0.0000 0.0000 41.8874 45.7078 73.0493 -92.5453 59.9755 -62.2041 0.0000 0.0000 11.6622 -12.6600 -23.9381 5.2077 7.1250 -0.0000 -0.0000 17.3414 -53.6012 -3.7558
0.00 0.00 0.00 1.3730 6.0090 25.5108 0.0000 0.0000 0.0000 -5.2110 -14.6615 -80.6989 17.2819 19.8219 82.0301 2.3134 -13.6019 -27.5899 3.8069 11.8990 35.3755 0.0000 0.0000 0.0000 7.0025 11.1452 -79.7126 -18.1600 -19.9186 84.6132 -4.6262 -28.2124 -56.0959 -0.0010 0.2092 -0.5747 1.0407 -0.3555 19.2540 0.0233 -0.2416 4.9748 -0.5114 -0.1177 -5.4076 -1.4006 -2.6031 3.7890 3.3411 -3.0955 -25.8593 1.6288 -1.6773 -8.5638 -0.0000 0.0000 0.0000 -24.6387 -76.7268 43.0645 77.3963 -59.3912 -49.1072 -0.0000 0.0000 -4.2630 21.0171 -26.1273 -9.6030 -7.1250 0.0000 -0.0000 -5.3099 2.3641 5.1086 -0.0000 0.0000 0.0000 40.9971 47.2531 72.6171 -94.6237 59.9191 -64.0031 0.0000 0.0000 11.9733 -12.6150 -23.3660 5.0723 7.1250 -0.0000 -0.0000 17.0974 -53.0431 -3.4636
0.00 0.00 0.00 1.0812 5.9717 25.5767 0.0000 0.0000 0.0000 -4.5795 -14.1844 -82.6463 18.3103 19.9314 85.0542 5.2593 -5.9451 -42.4903 4.1170 12.3145 36.8538 0.0000 0.0000 0.0000 7.0075 11.4416 -81.5225 -19.0762 -19.9795 87.2982 -7.4543 -42.3017 -71.9530 -0.0026 0.3280 -0.9012 1.0617 -0.2986 19.8924 0.1685 -0.1461 5.1530 -0.3897 -0.0712 -5.5497 -1.3932 -2.5535 3.7724 3.2098 -3.0517 -26.3970 1.5906 -1.6431 -8.7515 -0.0000 -0.0000 0.0000 -18.5183 -77.9543 37.4435 79.8098 -59.6040 -51.1868 -0.0000 0.0000 -3.4873 21.3782 -26.7863 -10.0049 -7.1250 0.0000 -0.0000 -5.1672 1.6172 5.0400 -0.0000 -0.0000 0.0000 40.0127 48.8209 72.1500 -96.6715 59.8311 -65.7744 0.0000 0.0000 11.9511 -12.8538 -23.2128 5.1392 7.1250 -0.0000 -0.0000 16.7888 -52.9376 -3.3542
0.00 0.00 0.00 0.8132 5.9066 25.5772 0.0000 0.0000 0.0000 -4.0032 -13.6717 -84.4905 19.1596 19.9831 87.5422 8.6746 1.8308 -57.0014 4.3432 12.6036 37.9023 0.0000 0.0000 0.0000 6.9834 11.7288 -83.2263 -19.6043 -19.9962 88.8429 -26.2007 -53.1482 -95.3053 -0.0011 0.2097 -0.5763 1.0330 -0.2000 20.5886 0.3165 -0.0052 5.2790 -0.2486 -0.0032 -5.7763 -1.6129 -2.5189 3.6628 3.3368 -2.9960 -26.6519 1.6700 -1.6069 -8.8148 -0.0000 0.0000 0.0000 -12.2136 -79.0903 31.6953 82.1248 -59.7643 -53.1852 -0.0000 0.0000 -2.7993 21.8552 -27.3714 -10.4481 -7.1250 0.0000 -0.0000 -4.9522 0.9223 4.8903 -0.0000 0.0000 0.0000 39.0288 50.2182 71.7093 -98.6620 59.7146 -67.4943 0.0000 0.0000 11.8241 -13.1667 -23.3700 5.3015 7.1250 -0.0000 -0.0000 16.5593 -53.1451 -3.3916
0.00 0.00 0.00 0.6195 5.7182 25.5699 0.0000 0.0000 0.0000 -3.5778 -13.0714 -86.2376 19.6302 19.9967 88.9188 12.9195 9.8291 -71.5703 4.4833 12.7772 38.5399 0.0000 0.0000 0.0000 6.8338 12.0380 -84.9974 -19.6117 -19.9964 88.8645 -57.5116 -57.6874 -128.0724 -0.0003 0.1068 -0.2933 0.8680 -0.0617 21.1998 0.4246 0.1539 5.3814 -0.0787 0.0745 -5.9831 -1.7818 -2.4817 3.7253 3.4393 -2.9376 -26.9587 1.7368 -1.5723 -8.9303 -0.0000 -0.0000 0.0000 -5.1552 -80.0671 25.0355 84.1441 -59.8700 -54.9309 -0.0000 0.0000 -1.5477 22.3176 -28.1068 -10.9452 -7.1250 0.0000 -0.0000 -4.7709 0.0716 4.7816 -0.0000 -0.0000 0.0000 38.3453 51.5555 71.3792 -100.0259 59.6168 -68.6715 0.0000 0.0000 12.1444 -13.4688 -22.8121 5.3051 7.1250 -0.0000 -0.0000 15.9960 -52.6579 -3.0780
0.00 0.00 0.00 0.6147 5.3442 25.5941 0.0000 0.0000 0.0000 -3.4454 -12.4604 -87.8327 19.6499 19.9971 88.9763 18.5906 17.4748 -86.7266 4.6367 12.9626 39.2287 0.0000 0.0000 0.0000 6.3710 12.3499 -86.8593 -19.0575 -19.9787 87.2435 -54.5300 -53.4674 -161.0560 -0.0004 0.1309 -0.3596 0.5522 0.1089 21.7323 0.3888 0.3078 5.5205 0.0221 0.1512 -6.1091 -1.6838 -2.4662 3.7945 3.2979 -2.9366 -27.3629 1.6819 -1.5662 -9.0908 0.0000 0.0000 0.0000 3.6989 -80.8504 16.5939 86.0075 -59.9397 -56.5431 -0.0000 0.0000 -0.1462 22.5820 -28.8139 -11.3345 -7.1250 0.0000 -0.0000 -4.7091 -0.7123 4.7834 0.0000 0.0000 0.0000 37.8683 52.9214 71.0611 -101.0092 59.5370 -69.5195 0.0000 0.0000 12.7701 -14.0488 -22.3207 5.4289 7.1250 -0.0000 -0.0000 15.2042 -52.2799 -2.7771
0.00 0.00 0.00 0.7702 5.2975 25.8282 0.0000 0.0000 0.0000 -3.2779 -12.2383 -89.6407 19.2520 19.9866 87.8124 26.0429 24.0614 -102.9152 4.7750 13.1259 39.8414 0.0000 0.0000 0.0000 5.8065 12.3837 -89.0607 -18.0577 -19.9093 84.3129 -45.6563 -42.7046 175.2779 -0.0012 0.2271 -0.6239 0.3071 0.1303 22.1514 0.3182 0.2798 5.6112 0.0923 0.1403 -6.2282 -1.5535 -2.4276 3.8668 3.1683 -2.8945 -27.8607 1.6236 -1.5445 -9.2880 0.0000 0.0000 0.0000 14.1992 -81.2568 6.7214 88.0781 -59.9860 -58.3357 -0.0000 -0.0000 0.6363 22.6507 -29.3962 -11.5757 -7.1250 0.0000 -0.0000 -4.7486 -1.3273 4.8740 0.0000 0.0000 0.0000 37.5216 54.2691 70.7638 -101.8703 59.4608 -70.2613 0.0000 0.0000 13.3622 -14.7052 -22.1280 5.6457 7.1250 -0.0000 -0.0000 14.4782 -52.2042 -2.6125
